<svg width="243" height="61" viewBox="0 0 243 61" fill="none" xmlns="http://www.w3.org/2000/svg">
<g clip-path="url(#clip0_1118_5563)">
<path d="M15.4351 14.6099C17.0296 14.6099 18.5795 14.7535 20.08 15.0409C21.5804 15.3283 22.8976 15.8386 24.0316 16.5719C25.1656 17.3101 26.0767 18.2911 26.7601 19.5198C27.4484 20.7485 27.7752 22.2943 27.7405 24.1424C27.7405 25.0391 27.587 25.8467 27.285 26.5651C26.9829 27.2835 26.5966 27.8979 26.1361 28.4082C25.6706 28.9185 25.1606 29.3198 24.606 29.6072C24.0464 29.8946 23.4819 30.0382 22.9075 30.0382C24.7595 30.0382 26.1411 30.6774 27.0522 31.9556C27.9634 33.2339 28.4189 34.8937 28.4189 36.9399C28.4189 38.4411 28.2506 39.7342 27.9188 40.8242C27.5821 41.9093 27.1364 42.8457 26.5768 43.6285C26.0173 44.4113 25.3785 45.0603 24.6605 45.5707C23.9424 46.081 23.2145 46.4972 22.4816 46.8143C20.7237 47.5475 18.7479 47.8844 16.5443 47.82H3.32275V14.6099H15.4351ZM13.281 22.661V26.3521H13.9495C14.1723 26.3521 14.3952 26.362 14.618 26.3769C14.8409 26.3917 15.0637 26.4016 15.2865 26.4016C15.5737 26.4016 15.9006 26.3719 16.267 26.3075C16.6334 26.2431 16.9949 26.1341 17.3465 25.9706C17.6981 25.812 17.9952 25.6039 18.2329 25.3463C18.4706 25.0887 18.5944 24.7419 18.5944 24.291C18.5944 23.8748 18.4656 23.5577 18.2131 23.3348C17.9556 23.1118 17.6535 22.9533 17.3019 22.8542C16.9504 22.7601 16.5988 22.7006 16.2472 22.6857C15.8956 22.6709 15.6233 22.661 15.4301 22.661H13.281ZM13.281 36.3206V40.2495H17.0147C17.396 40.2198 17.7476 40.1356 18.0695 40.0117C18.327 39.8829 18.5647 39.6996 18.7875 39.4617C19.0103 39.2239 19.1242 38.8771 19.1242 38.4312C19.1242 37.5988 18.6786 37.0588 17.7823 36.8012C16.886 36.5485 15.752 36.385 14.3803 36.3206H14.0931H13.9H13.281Z" fill="white"/>
<path d="M49.4943 14.4165L67.024 47.9685H55.7188L49.4002 36.1322L43.0767 47.9685H31.7715L49.4943 14.4165Z" fill="white"/>
<path d="M72.0156 14.4169L88.2034 28.2202V14.4169L98.5033 14.3228L98.4587 47.9194L83.2713 36.0335L83.4149 47.9689H72.1097L72.0156 14.4169Z" fill="white"/>
<path d="M121.025 14.4165L138.559 47.9685H127.254L120.93 36.1322L114.607 47.9685H103.302L121.025 14.4165Z" fill="white"/>
<path d="M152.995 47.9693C150.697 47.9693 148.523 47.5383 146.478 46.6762C144.433 45.8141 142.66 44.625 141.159 43.104C139.659 41.5879 138.471 39.8142 137.589 37.7828C136.713 35.7564 136.272 33.5913 136.272 31.2875C136.272 28.9539 136.713 26.7689 137.589 24.7227C138.466 22.6765 139.654 20.8978 141.159 19.3768C142.66 17.8607 144.433 16.6617 146.478 15.7798C148.523 14.9029 150.692 14.4619 152.995 14.4619H157.545V24.0489H153.475C152.484 24.0489 151.554 24.2421 150.672 24.6236C149.796 25.0051 149.038 25.5254 148.399 26.1794C147.76 26.8334 147.25 27.6013 146.864 28.4783C146.483 29.3602 146.29 30.2916 146.29 31.2825C146.29 32.2734 146.483 33.2098 146.864 34.0868C147.245 34.9637 147.76 35.7218 148.399 36.3609C149.038 37 149.796 37.5103 150.672 37.8968C151.549 38.2783 152.484 38.4715 153.475 38.4715H157.644V47.9594H152.995V47.9693Z" fill="white"/>
<path d="M184.825 24.0035H178.452V14.4165H200.151V24.053H193.783V47.9685H184.825V24.0035Z" fill="white"/>
<path d="M217.309 31.4808L204.424 14.4224H215.729L222.053 24.3413L228.371 14.4224H239.676L226.168 31.5799V47.9694H217.309V31.4808Z" fill="white"/>
<path d="M173.51 29.4189H162.636V47.9687H173.51V29.4189Z" fill="white"/>
<path d="M168.384 14.4165C165.383 14.4165 162.947 16.8541 162.947 19.8566C162.947 22.859 165.383 25.2966 168.384 25.2966C171.385 25.2966 173.821 22.859 173.821 19.8566C173.821 16.8541 171.39 14.4165 168.384 14.4165Z" fill="#1C75BC"/>
</g>
<defs>
<clipPath id="clip0_1118_5563">
<rect width="243" height="61" fill="white"/>
</clipPath>
</defs>
</svg>
